{
    "asset" : {
        "generator" : "Khronos glTF Blender I/O v3.4.50",
        "version" : "2.0"
    },
    "scene" : 0,
    "scenes" : [
        {
            "name" : "Scene",
            "nodes" : [
                0,
                1,
                2,
                3
            ]
        }
    ],
    "nodes" : [
        {
            "name" : "BezierCircle",
            "scale" : [
                4.817975997924805,
                4.817975997924805,
                4.817975997924805
            ],
            "translation" : [
                0.1512470245361328,
                3.1013054847717285,
                0.021175775676965714
            ]
        },
        {
            "mesh" : 0,
            "name" : "Cube",
            "scale" : [
                1.3252977132797241,
                1.3252977132797241,
                1.3252977132797241
            ],
            "translation" : [
                0,
                4.117915630340576,
                0
            ]
        },
        {
            "mesh" : 1,
            "name" : "Text",
            "rotation" : [
                0.7071068286895752,
                0,
                0,
                0.7071068286895752
            ],
            "scale" : [
                2.425363063812256,
                2.425363063812256,
                2.425363063812256
            ],
            "translation" : [
                -1.4774374961853027,
                2.874166250228882,
                2.0643372535705566
            ]
        },
        {
            "mesh" : 2,
            "name" : "Text.001",
            "rotation" : [
                0,
                0.7071068286895752,
                -0.7071068286895752,
                9.833800618253008e-08
            ],
            "scale" : [
                2.425412178039551,
                2.425412178039551,
                2.425412178039551
            ],
            "translation" : [
                1.790436029434204,
                2.8989741802215576,
                -2.0309362411499023
            ]
        }
    ],
    "materials" : [
        {
            "doubleSided" : true,
            "name" : "Material.004",
            "pbrMetallicRoughness" : {}
        },
        {
            "doubleSided" : true,
            "name" : "Material.010",
            "pbrMetallicRoughness" : {
                "baseColorFactor" : [
                    0,
                    0,
                    0,
                    1
                ],
                "roughnessFactor" : 0
            }
        },
        {
            "doubleSided" : true,
            "name" : "Material.009",
            "pbrMetallicRoughness" : {
                "baseColorFactor" : [
                    0,
                    0,
                    0,
                    1
                ],
                "roughnessFactor" : 0
            }
        }
    ],
    "meshes" : [
        {
            "name" : "Mesh",
            "primitives" : [
                {
                    "attributes" : {
                        "COLOR_0" : 0,
                        "POSITION" : 1,
                        "NORMAL" : 2
                    },
                    "indices" : 3,
                    "material" : 0
                }
            ]
        },
        {
            "name" : "Text.001",
            "primitives" : [
                {
                    "attributes" : {
                        "POSITION" : 4,
                        "TEXCOORD_0" : 5,
                        "NORMAL" : 6,
                        "TANGENT" : 7
                    },
                    "indices" : 8,
                    "material" : 1
                }
            ]
        },
        {
            "name" : "Text.002",
            "primitives" : [
                {
                    "attributes" : {
                        "POSITION" : 9,
                        "TEXCOORD_0" : 10,
                        "NORMAL" : 11,
                        "TANGENT" : 12
                    },
                    "indices" : 13,
                    "material" : 2
                }
            ]
        }
    ],
    "accessors" : [
        {
            "bufferView" : 0,
            "componentType" : 5123,
            "count" : 7618,
            "normalized" : true,
            "type" : "VEC4"
        },
        {
            "bufferView" : 1,
            "componentType" : 5126,
            "count" : 7618,
            "max" : [
                1.5603859424591064,
                1.0274100303649902,
                0.969595730304718
            ],
            "min" : [
                -1.5603861808776855,
                -1.8633919954299927,
                -0.9695957899093628
            ],
            "type" : "VEC3"
        },
        {
            "bufferView" : 2,
            "componentType" : 5126,
            "count" : 7618,
            "type" : "VEC3"
        },
        {
            "bufferView" : 3,
            "componentType" : 5123,
            "count" : 45696,
            "type" : "SCALAR"
        },
        {
            "bufferView" : 4,
            "componentType" : 5126,
            "count" : 216,
            "max" : [
                1.218000054359436,
                0,
                0
            ],
            "min" : [
                0.058000002056360245,
                -0.18000000715255737,
                -0.7000000476837158
            ],
            "type" : "VEC3"
        },
        {
            "bufferView" : 5,
            "componentType" : 5126,
            "count" : 216,
            "type" : "VEC2"
        },
        {
            "bufferView" : 6,
            "componentType" : 5126,
            "count" : 216,
            "type" : "VEC3"
        },
        {
            "bufferView" : 7,
            "componentType" : 5126,
            "count" : 216,
            "type" : "VEC4"
        },
        {
            "bufferView" : 8,
            "componentType" : 5123,
            "count" : 312,
            "type" : "SCALAR"
        },
        {
            "bufferView" : 9,
            "componentType" : 5126,
            "count" : 1352,
            "max" : [
                1.40500009059906,
                0,
                0.010000000707805157
            ],
            "min" : [
                0.058000002056360245,
                -0.17999999225139618,
                -0.7100000381469727
            ],
            "type" : "VEC3"
        },
        {
            "bufferView" : 10,
            "componentType" : 5126,
            "count" : 1352,
            "type" : "VEC2"
        },
        {
            "bufferView" : 11,
            "componentType" : 5126,
            "count" : 1352,
            "type" : "VEC3"
        },
        {
            "bufferView" : 12,
            "componentType" : 5126,
            "count" : 1352,
            "type" : "VEC4"
        },
        {
            "bufferView" : 13,
            "componentType" : 5123,
            "count" : 2016,
            "type" : "SCALAR"
        }
    ],
    "bufferViews" : [
        {
            "buffer" : 0,
            "byteLength" : 60944,
            "byteOffset" : 0,
            "target" : 34962
        },
        {
            "buffer" : 0,
            "byteLength" : 91416,
            "byteOffset" : 60944,
            "target" : 34962
        },
        {
            "buffer" : 0,
            "byteLength" : 91416,
            "byteOffset" : 152360,
            "target" : 34962
        },
        {
            "buffer" : 0,
            "byteLength" : 91392,
            "byteOffset" : 243776,
            "target" : 34963
        },
        {
            "buffer" : 0,
            "byteLength" : 2592,
            "byteOffset" : 335168,
            "target" : 34962
        },
        {
            "buffer" : 0,
            "byteLength" : 1728,
            "byteOffset" : 337760,
            "target" : 34962
        },
        {
            "buffer" : 0,
            "byteLength" : 2592,
            "byteOffset" : 339488,
            "target" : 34962
        },
        {
            "buffer" : 0,
            "byteLength" : 3456,
            "byteOffset" : 342080,
            "target" : 34962
        },
        {
            "buffer" : 0,
            "byteLength" : 624,
            "byteOffset" : 345536,
            "target" : 34963
        },
        {
            "buffer" : 0,
            "byteLength" : 16224,
            "byteOffset" : 346160,
            "target" : 34962
        },
        {
            "buffer" : 0,
            "byteLength" : 10816,
            "byteOffset" : 362384,
            "target" : 34962
        },
        {
            "buffer" : 0,
            "byteLength" : 16224,
            "byteOffset" : 373200,
            "target" : 34962
        },
        {
            "buffer" : 0,
            "byteLength" : 21632,
            "byteOffset" : 389424,
            "target" : 34962
        },
        {
            "buffer" : 0,
            "byteLength" : 4032,
            "byteOffset" : 411056,
            "target" : 34963
        }
    ],
    "buffers" : [
        {
            "byteLength" : 415088,
            "uri" : "data:application/octet-stream;base64,"
        }
    ]
}
